<?xml version="1.0" encoding="utf-8"?>
<!-- Generator: Adobe Illustrator 27.0.0, SVG Export Plug-In . SVG Version: 6.00 Build 0)  -->
<svg version="1.1" id="Layer_1" xmlns="http://www.w3.org/2000/svg" xmlns:xlink="http://www.w3.org/1999/xlink" x="0px" y="0px"
	 viewBox="0 0 256 256" style="enable-background:new 0 0 256 256;" xml:space="preserve">
<style type="text/css">
	.st0{fill:#1ABCB9;}
	.st1{fill:#FFFFFF;}
</style>
<path class="st0" d="M218.63,256H37.37C16.73,256,0,239.27,0,218.63V37.37C0,16.73,16.73,0,37.37,0h181.26
	C239.27,0,256,16.73,256,37.37v181.26C256,239.27,239.27,256,218.63,256z"/>
<path class="st1" d="M66.51,186.68c-3.75-2.02-6.68-4.84-8.77-8.44c-2.09-3.61-3.14-7.51-3.14-11.69v-45.47l-22.73-12.55
	c-2.04-1.14-3.53-2.56-4.45-4.27c-0.93-1.71-1.39-3.6-1.39-5.69c0-2.02,0.46-3.92,1.39-5.71c0.93-1.79,2.41-3.27,4.45-4.47
	l78.81-43.09c1.73-1.01,3.52-1.73,5.36-2.17s3.74-0.65,5.68-0.65c1.94,0,3.83,0.22,5.68,0.65c1.84,0.43,3.63,1.15,5.36,2.17
	l91.37,49.8c1.86,0.95,3.29,2.32,4.32,4.13c1.02,1.8,1.53,3.75,1.53,5.83v61.06c0,3.18-1.12,5.88-3.36,8.12
	c-2.24,2.24-4.94,3.36-8.12,3.36c-3.18,0-5.88-1.12-8.12-3.36c-2.24-2.24-3.36-4.94-3.36-8.12v-55.21l-18.19,10.18v45.47
	c0,4.19-1.05,8.08-3.14,11.69c-2.09,3.61-5.02,6.42-8.77,8.44l-44.17,24.03c-1.73,1.01-3.52,1.73-5.36,2.17
	c-1.84,0.43-3.74,0.65-5.68,0.65c-1.94,0-3.83-0.22-5.68-0.65c-1.84-0.43-3.63-1.15-5.36-2.17L66.51,186.68z M121.72,131.25
	l60.63-32.91l-60.63-32.69L61.31,98.34L121.72,131.25z M121.72,190.36l44.17-23.82v-33.56l-33.13,18.4c-1.73,1.01-3.5,1.73-5.3,2.17
	c-1.8,0.43-3.72,0.65-5.74,0.65c-2.02,0-3.93-0.22-5.74-0.65s-3.57-1.15-5.3-2.17l-33.13-18.4v33.56L121.72,190.36z"/>
</svg>
